# xmcd CD database file
#
# Track frame offsets:
#	150
#	24608
#	65083
#
# Disc length: 1239 seconds
#
# Revision: 0
# Processed by: cddbd v1.5.1PL0 Copyright (c) Steve Scherf et al.
# Submitted via: CDex 1.51
#
DISCID=2404d503
DTITLE=dorlis - 流星のタイムカプセル
DYEAR=2004
DGENRE=Jazz
TTITLE0=流星のタイムカプセル〜Jazz ballad version〜
TTITLE1=磁石の肌〜Ken's Malco Mix〜
TTITLE2=流星のタイムカプセル PV
EXTD=YEAR: 2004
EXTT0=
EXTT1=
EXTT2=
PLAYORDER=
